<svg xmlns="http://www.w3.org/2000/svg" version="1.1" xmlns:xlink="http://www.w3.org/1999/xlink" width="1000" height="1000"><metadata><rdf:RDF xmlns:rdf="http://www.w3.org/1999/02/22-rdf-syntax-ns#" xmlns:dc="http://purl.org/dc/elements/1.1/"><rdf:Description><dc:creator>RealFaviconGenerator</dc:creator><dc:source>https://realfavicongenerator.net</dc:source></rdf:Description></rdf:RDF></metadata><style>
    #light-icon {
      display: inline;
    }
    #dark-icon {
      display: none;
    }

    @media (prefers-color-scheme: dark) {
      #light-icon {
        display: none;
      }
      #dark-icon {
        display: inline;
      }
    }
  </style><g id="light-icon"><svg xmlns="http://www.w3.org/2000/svg" version="1.1" xmlns:xlink="http://www.w3.org/1999/xlink" width="1000" height="1000"><g><g transform="matrix(2.127659574468085,0,0,2.127659574468085,0,150)" style="filter: contrast(1) brightness(1)"><svg xmlns="http://www.w3.org/2000/svg" width="470" height="329" viewBox="0 0 470 329" fill="none"><path d="M205.01 327.58V290.58V253.58H219.01V266.58C219.01 273.73 219.35 279.6 219.76 279.62C220.17 279.65 221.19 278.9 222.01 277.97C222.83 277.03 225.31 275.44 227.51 274.44C229.71 273.44 233.76 272.61 236.51 272.59C239.76 272.57 243.09 273.36 246.01 274.82C249.18 276.41 251.25 278.41 253.01 281.58C255.42 285.92 255.52 286.8 256.01 327.58L241.51 327.08L241.24 309.08C241 293.51 240.72 290.74 239.14 288.58C238.14 287.21 235.79 285.68 233.91 285.19C231.4 284.54 229.59 284.72 227.01 285.88C224.84 286.86 222.75 288.92 221.51 291.27C219.71 294.69 219.54 296.73 220.01 327.58H205.01Z" fill="#153E6C"></path><path d="M412.01 327.58V290.58V253.58H426.01V279.58L430.6 276.33C434.44 273.61 436.27 273.02 441.85 272.71C447.21 272.42 449.56 272.81 453.91 274.71C456.88 276.02 460.82 278.77 462.66 280.83C464.5 282.89 466.75 286.27 467.66 288.33C468.71 290.71 469.35 295.01 469.41 300.08C469.49 306.81 469.09 308.96 466.86 313.58C465.25 316.92 462.51 320.45 459.86 322.57C457.47 324.48 453.93 326.6 452.01 327.27C450.09 327.94 446.49 328.52 444.01 328.55C441.53 328.59 437.93 328.09 436.01 327.46C434.09 326.82 431.05 325.24 429.26 323.94C427.47 322.64 425.78 321.58 425.51 321.58C425.24 321.58 425.12 322.82 425.26 324.33C425.51 327.06 425.46 327.08 412.01 327.58Z" fill="#153E6C"></path><path d="M6.49017 288.08C9.04017 272.13 11.3702 258.27 11.6602 257.29C12.1302 255.75 13.2002 255.54 26.3902 256.08L34.9502 279.71C39.6602 292.71 43.7402 303.6 44.0102 303.91C44.2902 304.22 48.4002 293.59 61.8002 256.08L76.5102 255.49L81.8702 288.29C84.8102 306.32 87.5102 322.55 88.5102 327.62L80.7602 327.6C76.5002 327.59 73.0102 327.24 73.0202 326.83C73.0202 326.42 71.6702 316.41 70.0202 304.58C68.3702 292.75 67.0102 282.97 67.0102 282.83C67.0102 282.69 66.5602 282.58 66.0102 282.58C65.4602 282.58 65.0102 283.03 65.0102 283.58C65.0102 284.13 62.0702 293.02 58.4802 303.33C54.8802 313.64 51.4002 323.35 50.7302 324.91C49.5802 327.58 49.2102 327.72 38.7102 327.08L30.6102 304.8C26.1602 292.55 22.2802 282.53 22.0102 282.54C21.7402 282.55 20.2502 291.45 18.7202 302.32C17.1802 313.19 15.7202 323.32 15.4702 324.83C15.0202 327.54 14.9102 327.58 7.51017 327.58C3.39017 327.58 0.0101749 327.47 0.000174941 327.33C-0.00982506 327.19 0.410175 324.83 0.930175 322.08C1.44017 319.33 3.95017 304.03 6.49017 288.08Z" fill="#153E6C"></path><path d="M171.51 274.08L171.8 264.83L172.08 255.58H186.12L186.51 274.08L196.01 274.58V285.58L186.51 286.08L186.01 327.58H172.01L171.51 286.08L164.01 285.58V274.08H171.51Z" fill="#153E6C"></path><path d="M272.52 327.08L272.25 291.33L271.99 255.58H287.06L287.52 282.08H315.52L315.64 256.08L322.58 255.76C329.09 255.47 329.56 255.59 330.25 257.76C330.66 259.04 331 275.27 331.02 327.58L315.56 327.08L315.01 296.08L287.02 295.58V327.58L272.52 327.08Z" fill="#153E6C"></path><path d="M102.18 282.64C104.21 279.94 107.64 277.09 110.92 275.39C115.04 273.25 117.72 272.58 122.17 272.58C125.39 272.58 129.7 273.28 131.76 274.14C133.83 274.99 136.54 276.68 140.07 280.08L140.01 273.58H154.01V327.58L147.26 327.33C142.09 327.14 140.49 326.73 140.42 325.58C140.36 324.75 140.25 323.52 140.17 322.83C140.07 322.01 138.89 322.4 136.76 323.94C134.98 325.24 131.94 326.82 130.01 327.46C128.09 328.09 124.26 328.6 121.51 328.57C118.7 328.55 114.55 327.64 112.01 326.5C109.54 325.38 106.23 323.25 104.67 321.77C103.11 320.29 100.74 316.94 99.4202 314.33C98.1002 311.72 96.7302 306.99 96.3802 303.83C95.9602 299.93 96.2602 296.31 97.3002 292.58C98.1602 289.56 100.35 285.08 102.18 282.64Z" fill="#153E6C"></path><path d="M347.98 312.58C347.45 310.66 347.02 301.09 347.02 291.33L347.01 273.58H361.06L361.29 291.33C361.46 305.17 361.85 309.57 363.01 311.3C363.84 312.52 365.53 313.98 366.76 314.55C368 315.12 370.75 315.58 372.88 315.58C375.59 315.58 377.45 314.88 379.13 313.23C380.44 311.94 381.86 309.35 382.28 307.48C382.7 305.61 383.03 297.22 383.01 273.58H397.01L397.02 290.83C397.03 302.98 396.6 309.56 395.58 313.08C394.72 316.03 392.67 319.62 390.57 321.83C388.04 324.5 385.36 326.05 381.26 327.21C377.5 328.28 373.27 328.68 369.01 328.39C364.7 328.09 361.01 327.12 358.05 325.51C355.6 324.17 352.54 321.5 351.26 319.58C349.98 317.66 348.5 314.5 347.98 312.58Z" fill="#153E6C"></path><path d="M110.86 5.00998C112.16 3.50998 114.18 1.90998 115.36 1.45998C116.54 1.00998 128.53 0.739981 142.01 0.859981C164.57 1.05998 166.87 1.24998 171.01 3.18998C173.49 4.33998 189.68 16.89 207.01 31.06C224.33 45.22 240.65 58.9 243.26 61.45C245.87 64 249.13 68.56 250.5 71.58C252.31 75.57 253.07 79.14 253.51 92.08L247.51 95.05C242.74 97.41 240.18 98.02 235.01 98.03C230.1 98.05 227.16 97.42 223.01 95.48C219.6 93.89 208.24 85.17 193.07 72.5C179.62 61.27 165.78 49.72 162.32 46.83C158.52 43.67 155.04 41.58 153.58 41.58C152.25 41.58 150.45 42.26 149.58 43.08C148.18 44.42 148.01 52.26 148.02 185.08L139.77 184.54C133.71 184.15 130.04 183.3 126.01 181.37C122.98 179.92 118.68 176.79 116.44 174.41C114.2 172.02 111.4 167.51 110.19 164.33C108.01 158.58 108.01 158.55 108.51 7.73998L110.86 5.00998Z" fill="#3887C2"></path><path d="M294.95 5.63998C296.91 4.29998 300.31 2.63998 302.51 1.95998C305.17 1.12665 314.17 0.689981 329.51 0.649981C350.81 0.589981 352.75 0.739981 355.76 2.57998C357.55 3.67998 359.68 6.14998 360.51 8.07998C361.76 11.01 362.01 18.52 362.01 96.58L358.01 96.83C354.02 97.08 354.01 97.08 354.01 93.33C354.01 91.27 353.52 87.22 352.91 84.33C352.31 81.44 350.79 77.28 349.54 75.08C348.29 72.88 345.52 69.54 343.39 67.65C341.25 65.77 337.71 63.42 335.51 62.44C333.31 61.46 329.37 60.3 321.98 59.08L321.99 51.33C322.01 44.4 321.77 43.42 319.76 42.07C318.52 41.24 316.95 40.57 316.26 40.57C315.57 40.58 312.14 42.94 308.62 45.83C305.11 48.72 294.09 57.94 284.12 66.33C274.16 74.72 265.67 81.41 265.26 81.19C264.85 80.98 264.2 78.62 263.82 75.94C263.44 73.27 261.8 68.38 260.17 65.08C258.18 61.04 255.06 57.12 244.05 47.08L267.72 27.58C280.74 16.85 292.99 6.97998 294.95 5.63998Z" fill="#3887C2"></path><path d="M310.13 76.83C311.44 75.6 314.31 73.93 316.51 73.13C318.71 72.32 321.41 71.65 322.51 71.63C323.61 71.61 326.2 72.04 328.26 72.59C330.32 73.13 333.84 75.27 336.07 77.33C338.4 79.48 340.53 82.58 341.07 84.58C341.58 86.51 342 92.58 342 108.08L304.51 145.59L291.26 145.58C283.97 145.58 276.77 145.1 275.26 144.52C273.75 143.93 271.22 142.24 269.64 140.77C268.06 139.29 266.14 136.62 265.39 134.83C264.63 133.04 264.01 129.44 264.01 126.83C264 124.12 264.8 120.58 265.86 118.58C266.88 116.65 269.62 113.73 271.95 112.08C276.11 109.13 276.42 109.08 304.01 108.58L304.03 97.83C304.05 89.52 304.47 86.17 305.9 83.08C306.92 80.88 308.82 78.07 310.13 76.83Z" fill="#3887C2"></path><path d="M219.01 253.58L211.76 253.25L204.51 252.93L219.51 253.08L219.6 280.08L219.01 253.58Z" fill="#3887C2"></path><path d="M171.01 273.57L171.21 264.32L171.42 255.07L171.74 263.57C171.92 268.25 171.83 272.64 171.54 273.32C171.25 274.01 169.55 274.5 164.51 274.25L171.01 273.57Z" fill="#3887C2"></path><path d="M287.5 282.07L287.46 268.82L287.42 255.57L288 281.57L296.01 282.07H287.5Z" fill="#3887C2"></path><path d="M315 281.57L315.21 270.32L315.42 259.07L315.74 269.57C315.91 275.35 315.82 280.64 315.53 281.32C315.21 282.09 313.35 282.51 306.5 282.22L315 281.57Z" fill="#3887C2"></path><path d="M167.33 286.32C165.07 286.17 163.5 285.5 163.25 284.57C162.977 283.557 163.12 283.447 163.68 284.24C164.13 284.88 166.08 285.55 171.5 286.07L171.57 328.07L171 286.57L167.33 286.32Z" fill="#3887C2"></path><path d="M287.75 319.57C287.56 324.25 287.41 320.65 287.41 311.57C287.41 302.5 287.56 298.67 287.75 303.07C287.93 307.47 287.93 314.9 287.75 319.57Z" fill="#3887C2"></path><path d="M219.73 311.57C219.51 313.5 219.34 311.7 219.34 307.57C219.34 303.45 219.51 301.87 219.73 304.07C219.95 306.27 219.95 309.65 219.73 311.57Z" fill="#3887C2"></path><path d="M154.73 324.57C154.51 326.5 154.34 324.7 154.34 320.57C154.34 316.45 154.51 314.87 154.73 317.07C154.95 319.27 154.95 322.65 154.73 324.57Z" fill="#3887C2"></path><path d="M150.51 0.33C144.46 0.5 134.78 0.5 129.01 0.33C123.24 0.15 128.19 0 140.01 0C151.83 0 156.56 0.15 150.51 0.33Z" fill="#C9D1D5"></path><path d="M340.51 0.33C334.46 0.5 324.78 0.5 319.01 0.33C313.24 0.15 318.18 0 330.01 0C341.84 0 346.56 0.15 340.51 0.33Z" fill="#C9D1D5"></path><path d="M107.76 120.08C107.61 140.43 107.48 124.01 107.48 83.58C107.48 43.15 107.61 26.51 107.76 46.58C107.91 66.65 107.91 99.73 107.76 120.08Z" fill="#C9D1D5"></path><path d="M362.01 96.58L362.25 58.83L362.48 21.08L362.76 58.08C362.91 78.43 362.8 95.64 362.52 96.33C362.22 97.06 360.46 97.51 354.51 97.24L362.01 96.58Z" fill="#C9D1D5"></path><path d="M148.77 157.58C148.61 172.71 148.48 160.1 148.48 129.58C148.48 99.06 148.61 86.68 148.77 102.08C148.92 117.48 148.92 142.45 148.77 157.58Z" fill="#C9D1D5"></path><path d="M213.98 91.08L211.75 88.62C210.52 87.26 211.32 87.68 213.52 89.54C215.72 91.41 219.99 94.09 223.02 95.49C227.15 97.41 230.14 98.05 235.02 98.04C240.14 98.04 242.85 97.41 254.11 92.08L253.76 125.08C253.42 157.01 253.33 158.27 251.04 164.08C249.48 168.04 246.94 171.82 243.59 175.19C239.8 179.02 237.13 180.72 233.02 181.95C229.99 182.86 224.48 183.6 214.02 183.58L213.98 91.08Z" fill="#C9D1D5"></path><path d="M342.02 108.08L342.19 102.08L342.36 96.08L343.52 108.08L352.52 108.36C357.47 108.52 363.32 108.9 365.52 109.21C367.72 109.52 371.43 110.85 373.77 112.18C376.69 113.83 378.64 115.91 380 118.83C381.1 121.17 382 124.77 382 126.83C382.01 128.89 381.32 132.27 380.46 134.33C379.61 136.39 377.7 139.33 376.21 140.86C374.73 142.38 372.17 144.04 370.52 144.54C368.87 145.04 361.78 145.71 342.02 146.58V156.08C342.02 161.31 341.47 167.72 340.81 170.33C340.04 173.38 338.33 176.35 336.06 178.62C333.79 180.9 330.81 182.6 327.77 183.37C324.45 184.22 321.74 184.29 318.77 183.61C316.43 183.08 313.45 181.84 312.14 180.86C310.83 179.88 308.9 177.95 307.86 176.58C306.81 175.2 305.53 172.28 305.01 170.08C304.49 167.88 304.05 161.69 304.02 146.58L277.52 146.14L304.52 145.53L342.02 108.08Z" fill="#C9D1D5"></path><path d="M411.49 328.08L411.25 290.33L411.02 252.58L413.77 252.72C416.03 252.83 416.12 252.92 412.02 253.58L411.49 328.08Z" fill="#C9D1D5"></path><path d="M426.53 279.58C426.21 279.85 425.95 273.78 425.95 266.08C425.95 258.38 426.16 252.31 426.42 252.58C426.67 252.85 426.93 258.93 426.99 266.08C427.06 273.23 426.85 279.31 426.53 279.58Z" fill="#C9D1D5"></path><path d="M204.76 281.08C204.58 286.58 204.43 282.53 204.43 272.08C204.43 261.63 204.57 257.13 204.75 262.08C204.93 267.03 204.94 275.58 204.76 281.08Z" fill="#C9D1D5"></path><path d="M22.5102 255.31C20.3102 255.52 16.9302 255.52 15.0102 255.31C13.0802 255.09 14.8802 254.92 19.0102 254.92C23.1302 254.92 24.7102 255.09 22.5102 255.31Z" fill="#C9D1D5"></path><path d="M66.3502 255.79C63.5202 255.95 61.4002 255.74 61.6502 255.33C61.9002 254.92 65.3502 254.65 69.3102 254.73C73.2702 254.81 75.3802 255.02 74.0102 255.19C72.6302 255.37 69.1902 255.64 66.3502 255.79Z" fill="#C9D1D5"></path><path d="M183.01 255.31C181.08 255.52 177.48 255.52 175.01 255.31C172.53 255.1 174.11 254.93 178.51 254.92C182.91 254.92 184.93 255.09 183.01 255.31Z" fill="#C9D1D5"></path><path d="M154.76 303.58C154.58 309.35 154.43 304.85 154.43 293.58C154.43 282.31 154.58 277.58 154.76 283.08C154.93 288.58 154.93 297.81 154.76 303.58Z" fill="#C9D1D5"></path><path d="M346.75 299.08C346.57 303.48 346.42 299.43 346.42 290.08C346.42 280.73 346.57 277.13 346.75 282.08C346.94 287.03 346.94 294.68 346.75 299.08Z" fill="#C9D1D5"></path><path d="M361.75 296.58C361.57 301.25 361.42 297.88 361.41 289.08C361.41 280.28 361.56 276.45 361.75 280.58C361.94 284.7 361.94 291.91 361.75 296.58Z" fill="#C9D1D5"></path><path d="M382.75 296.08C382.57 300.48 382.41 297.1 382.41 288.58C382.41 280.06 382.57 276.45 382.75 280.58C382.94 284.7 382.94 291.68 382.75 296.08Z" fill="#C9D1D5"></path><path d="M397.75 299.08C397.57 303.48 397.42 299.43 397.42 290.08C397.42 280.73 397.57 277.13 397.75 282.08C397.94 287.03 397.94 294.68 397.75 299.08Z" fill="#C9D1D5"></path><path d="M186.76 317.08C186.58 323.13 186.43 318.63 186.43 307.08C186.43 295.53 186.58 290.58 186.75 296.08C186.93 301.58 186.93 311.03 186.76 317.08Z" fill="#C9D1D5"></path><path d="M308.01 296.32C303.88 296.51 297.58 296.51 294.01 296.32C290.43 296.13 293.81 295.97 301.51 295.97C309.21 295.98 312.13 296.13 308.01 296.32Z" fill="#C9D1D5"></path><path d="M256.75 321.08C256.56 324.93 256.4 322 256.4 314.58C256.4 307.16 256.56 304 256.75 307.58C256.94 311.16 256.94 317.23 256.75 321.08Z" fill="#C9D1D5"></path><path d="M116.02 289.39C117.53 287.92 119.83 286.5 121.14 286.23C122.44 285.97 125.31 285.93 127.51 286.15C129.71 286.37 132.52 287.23 133.76 288.06C135 288.9 136.8 290.8 137.76 292.29C138.9 294.05 139.51 296.96 139.51 300.61C139.51 305.19 139 306.92 136.76 309.91C135.03 312.22 132.62 314 130.26 314.7C128.2 315.32 124.94 315.57 123.01 315.25C121.08 314.94 118.11 313.42 116.39 311.88C114.57 310.24 112.74 307.21 111.98 304.58C110.93 300.91 110.93 299.34 111.98 296.08C112.69 293.88 114.51 290.87 116.02 289.39Z" fill="#C9D1D5"></path><path d="M428.93 291.21C430.02 289.64 432.39 287.72 434.21 286.95C436.02 286.18 439.31 285.7 441.51 285.88C443.71 286.05 446.97 287.19 448.76 288.39C450.72 289.71 452.65 292.27 453.61 294.83C454.61 297.47 454.98 300.41 454.61 302.58C454.28 304.5 453.19 307.43 452.2 309.08C451.2 310.73 448.62 312.93 446.45 313.96C443.63 315.3 441.37 315.66 438.51 315.22C436.31 314.89 433.5 313.93 432.26 313.1C431.02 312.26 429.06 309.44 427.9 306.83C426.36 303.38 425.95 300.98 426.38 298.08C426.7 295.88 427.85 292.79 428.93 291.21Z" fill="#C9D1D5"></path></svg></g></g></svg></g><g id="dark-icon"><svg xmlns="http://www.w3.org/2000/svg" version="1.1" xmlns:xlink="http://www.w3.org/1999/xlink" width="1000" height="1000"><g><g transform="matrix(2.127659574468085,0,0,2.127659574468085,0,150)"><svg xmlns="http://www.w3.org/2000/svg" width="470" height="329" viewBox="0 0 470 329" fill="none"><path d="M205.01 327.58V290.58V253.58H219.01V266.58C219.01 273.73 219.35 279.6 219.76 279.62C220.17 279.65 221.19 278.9 222.01 277.97C222.83 277.03 225.31 275.44 227.51 274.44C229.71 273.44 233.76 272.61 236.51 272.59C239.76 272.57 243.09 273.36 246.01 274.82C249.18 276.41 251.25 278.41 253.01 281.58C255.42 285.92 255.52 286.8 256.01 327.58L241.51 327.08L241.24 309.08C241 293.51 240.72 290.74 239.14 288.58C238.14 287.21 235.79 285.68 233.91 285.19C231.4 284.54 229.59 284.72 227.01 285.88C224.84 286.86 222.75 288.92 221.51 291.27C219.71 294.69 219.54 296.73 220.01 327.58H205.01Z" fill="#3887C2"></path><path d="M412.01 327.58V290.58V253.58H426.01V279.58L430.6 276.33C434.44 273.61 436.27 273.02 441.85 272.71C447.21 272.42 449.56 272.81 453.91 274.71C456.88 276.02 460.82 278.77 462.66 280.83C464.5 282.89 466.75 286.27 467.66 288.33C468.71 290.71 469.35 295.01 469.41 300.08C469.49 306.81 469.09 308.96 466.86 313.58C465.25 316.92 462.51 320.45 459.86 322.57C457.47 324.48 453.93 326.6 452.01 327.27C450.09 327.94 446.49 328.52 444.01 328.55C441.53 328.59 437.93 328.09 436.01 327.46C434.09 326.82 431.05 325.24 429.26 323.94C427.47 322.64 425.78 321.58 425.51 321.58C425.24 321.58 425.12 322.82 425.26 324.33C425.51 327.06 425.46 327.08 412.01 327.58Z" fill="#3887C2"></path><path d="M6.49017 288.08C9.04017 272.13 11.3702 258.27 11.6602 257.29C12.1302 255.75 13.2002 255.54 26.3902 256.08L34.9502 279.71C39.6602 292.71 43.7402 303.6 44.0102 303.91C44.2902 304.22 48.4002 293.59 61.8002 256.08L76.5102 255.49L81.8702 288.29C84.8102 306.32 87.5102 322.55 88.5102 327.62L80.7602 327.6C76.5002 327.59 73.0102 327.24 73.0202 326.83C73.0202 326.42 71.6702 316.41 70.0202 304.58C68.3702 292.75 67.0102 282.97 67.0102 282.83C67.0102 282.69 66.5602 282.58 66.0102 282.58C65.4602 282.58 65.0102 283.03 65.0102 283.58C65.0102 284.13 62.0702 293.02 58.4802 303.33C54.8802 313.64 51.4002 323.35 50.7302 324.91C49.5802 327.58 49.2102 327.72 38.7102 327.08L30.6102 304.8C26.1602 292.55 22.2802 282.53 22.0102 282.54C21.7402 282.55 20.2502 291.45 18.7202 302.32C17.1802 313.19 15.7202 323.32 15.4702 324.83C15.0202 327.54 14.9102 327.58 7.51017 327.58C3.39017 327.58 0.0101749 327.47 0.000174941 327.33C-0.00982506 327.19 0.410175 324.83 0.930175 322.08C1.44017 319.33 3.95017 304.03 6.49017 288.08Z" fill="#3887C2"></path><path d="M171.51 274.08L171.8 264.83L172.08 255.58H186.12L186.51 274.08L196.01 274.58V285.58L186.51 286.08L186.01 327.58H172.01L171.51 286.08L164.01 285.58V274.08H171.51Z" fill="#3887C2"></path><path d="M272.52 327.08L272.25 291.33L271.99 255.58H287.06L287.52 282.08H315.52L315.64 256.08L322.58 255.76C329.09 255.47 329.56 255.59 330.25 257.76C330.66 259.04 331 275.27 331.02 327.58L315.56 327.08L315.01 296.08L287.02 295.58V327.58L272.52 327.08Z" fill="#3887C2"></path><path d="M102.18 282.64C104.21 279.94 107.64 277.09 110.92 275.39C115.04 273.25 117.72 272.58 122.17 272.58C125.39 272.58 129.7 273.28 131.76 274.14C133.83 274.99 136.54 276.68 140.07 280.08L140.01 273.58H154.01V327.58L147.26 327.33C142.09 327.14 140.49 326.73 140.42 325.58C140.36 324.75 140.25 323.52 140.17 322.83C140.07 322.01 138.89 322.4 136.76 323.94C134.98 325.24 131.94 326.82 130.01 327.46C128.09 328.09 124.26 328.6 121.51 328.57C118.7 328.55 114.55 327.64 112.01 326.5C109.54 325.38 106.23 323.25 104.67 321.77C103.11 320.29 100.74 316.94 99.4202 314.33C98.1002 311.72 96.7302 306.99 96.3802 303.83C95.9602 299.93 96.2602 296.31 97.3002 292.58C98.1602 289.56 100.35 285.08 102.18 282.64Z" fill="#3887C2"></path><path d="M347.98 312.58C347.45 310.66 347.02 301.09 347.02 291.33L347.01 273.58H361.06L361.29 291.33C361.46 305.17 361.85 309.57 363.01 311.3C363.84 312.52 365.53 313.98 366.76 314.55C368 315.12 370.75 315.58 372.88 315.58C375.59 315.58 377.45 314.88 379.13 313.23C380.44 311.94 381.86 309.35 382.28 307.48C382.7 305.61 383.03 297.22 383.01 273.58H397.01L397.02 290.83C397.03 302.98 396.6 309.56 395.58 313.08C394.72 316.03 392.67 319.62 390.57 321.83C388.04 324.5 385.36 326.05 381.26 327.21C377.5 328.28 373.27 328.68 369.01 328.39C364.7 328.09 361.01 327.12 358.05 325.51C355.6 324.17 352.54 321.5 351.26 319.58C349.98 317.66 348.5 314.5 347.98 312.58Z" fill="#3887C2"></path><path d="M110.86 5.00998C112.16 3.50998 114.18 1.90998 115.36 1.45998C116.54 1.00998 128.53 0.739981 142.01 0.859981C164.57 1.05998 166.87 1.24998 171.01 3.18998C173.49 4.33998 189.68 16.89 207.01 31.06C224.33 45.22 240.65 58.9 243.26 61.45C245.87 64 249.13 68.56 250.5 71.58C252.31 75.57 253.07 79.14 253.51 92.08L247.51 95.05C242.74 97.41 240.18 98.02 235.01 98.03C230.1 98.05 227.16 97.42 223.01 95.48C219.6 93.89 208.24 85.17 193.07 72.5C179.62 61.27 165.78 49.72 162.32 46.83C158.52 43.67 155.04 41.58 153.58 41.58C152.25 41.58 150.45 42.26 149.58 43.08C148.18 44.42 148.01 52.26 148.02 185.08L139.77 184.54C133.71 184.15 130.04 183.3 126.01 181.37C122.98 179.92 118.68 176.79 116.44 174.41C114.2 172.02 111.4 167.51 110.19 164.33C108.01 158.58 108.01 158.55 108.51 7.73998L110.86 5.00998Z" fill="#3887C2"></path><path d="M294.95 5.63998C296.91 4.29998 300.31 2.63998 302.51 1.95998C305.17 1.12665 314.17 0.689981 329.51 0.649981C350.81 0.589981 352.75 0.739981 355.76 2.57998C357.55 3.67998 359.68 6.14998 360.51 8.07998C361.76 11.01 362.01 18.52 362.01 96.58L358.01 96.83C354.02 97.08 354.01 97.08 354.01 93.33C354.01 91.27 353.52 87.22 352.91 84.33C352.31 81.44 350.79 77.28 349.54 75.08C348.29 72.88 345.52 69.54 343.39 67.65C341.25 65.77 337.71 63.42 335.51 62.44C333.31 61.46 329.37 60.3 321.98 59.08L321.99 51.33C322.01 44.4 321.77 43.42 319.76 42.07C318.52 41.24 316.95 40.57 316.26 40.57C315.57 40.58 312.14 42.94 308.62 45.83C305.11 48.72 294.09 57.94 284.12 66.33C274.16 74.72 265.67 81.41 265.26 81.19C264.85 80.98 264.2 78.62 263.82 75.94C263.44 73.27 261.8 68.38 260.17 65.08C258.18 61.04 255.06 57.12 244.05 47.08L267.72 27.58C280.74 16.85 292.99 6.97998 294.95 5.63998Z" fill="#3887C2"></path><path d="M310.13 76.83C311.44 75.6 314.31 73.93 316.51 73.13C318.71 72.32 321.41 71.65 322.51 71.63C323.61 71.61 326.2 72.04 328.26 72.59C330.32 73.13 333.84 75.27 336.07 77.33C338.4 79.48 340.53 82.58 341.07 84.58C341.58 86.51 342 92.58 342 108.08L304.51 145.59L291.26 145.58C283.97 145.58 276.77 145.1 275.26 144.52C273.75 143.93 271.22 142.24 269.64 140.77C268.06 139.29 266.14 136.62 265.39 134.83C264.63 133.04 264.01 129.44 264.01 126.83C264 124.12 264.8 120.58 265.86 118.58C266.88 116.65 269.62 113.73 271.95 112.08C276.11 109.13 276.42 109.08 304.01 108.58L304.03 97.83C304.05 89.52 304.47 86.17 305.9 83.08C306.92 80.88 308.82 78.07 310.13 76.83Z" fill="#3887C2"></path><path d="M219.01 253.58L211.76 253.25L204.51 252.93L219.51 253.08L219.6 280.08L219.01 253.58Z" fill="#3887C2"></path><path d="M171.01 273.57L171.21 264.32L171.42 255.07L171.74 263.57C171.92 268.25 171.83 272.64 171.54 273.32C171.25 274.01 169.55 274.5 164.51 274.25L171.01 273.57Z" fill="#3887C2"></path><path d="M287.5 282.07L287.46 268.82L287.42 255.57L288 281.57L296.01 282.07H287.5Z" fill="#3887C2"></path><path d="M315 281.57L315.21 270.32L315.42 259.07L315.74 269.57C315.91 275.35 315.82 280.64 315.53 281.32C315.21 282.09 313.35 282.51 306.5 282.22L315 281.57Z" fill="#3887C2"></path><path d="M167.33 286.32C165.07 286.17 163.5 285.5 163.25 284.57C162.977 283.557 163.12 283.447 163.68 284.24C164.13 284.88 166.08 285.55 171.5 286.07L171.57 328.07L171 286.57L167.33 286.32Z" fill="#3887C2"></path><path d="M287.75 319.57C287.56 324.25 287.41 320.65 287.41 311.57C287.41 302.5 287.56 298.67 287.75 303.07C287.93 307.47 287.93 314.9 287.75 319.57Z" fill="#3887C2"></path><path d="M219.73 311.57C219.51 313.5 219.34 311.7 219.34 307.57C219.34 303.45 219.51 301.87 219.73 304.07C219.95 306.27 219.95 309.65 219.73 311.57Z" fill="#3887C2"></path><path d="M154.73 324.57C154.51 326.5 154.34 324.7 154.34 320.57C154.34 316.45 154.51 314.87 154.73 317.07C154.95 319.27 154.95 322.65 154.73 324.57Z" fill="#3887C2"></path><path d="M150.51 0.33C144.46 0.5 134.78 0.5 129.01 0.33C123.24 0.15 128.19 0 140.01 0C151.83 0 156.56 0.15 150.51 0.33Z" fill="#153E6C"></path><path d="M340.51 0.33C334.46 0.5 324.78 0.5 319.01 0.33C313.24 0.15 318.18 0 330.01 0C341.84 0 346.56 0.15 340.51 0.33Z" fill="#153E6C"></path><path d="M107.76 120.08C107.61 140.43 107.48 124.01 107.48 83.58C107.48 43.15 107.61 26.51 107.76 46.58C107.91 66.65 107.91 99.73 107.76 120.08Z" fill="#153E6C"></path><path d="M362.01 96.58L362.25 58.83L362.48 21.08L362.76 58.08C362.91 78.43 362.8 95.64 362.52 96.33C362.22 97.06 360.46 97.51 354.51 97.24L362.01 96.58Z" fill="#153E6C"></path><path d="M148.77 157.58C148.61 172.71 148.48 160.1 148.48 129.58C148.48 99.06 148.61 86.68 148.77 102.08C148.92 117.48 148.92 142.45 148.77 157.58Z" fill="#153E6C"></path><path d="M213.98 91.08L211.75 88.62C210.52 87.26 211.32 87.68 213.52 89.54C215.72 91.41 219.99 94.09 223.02 95.49C227.15 97.41 230.14 98.05 235.02 98.04C240.14 98.04 242.85 97.41 254.11 92.08L253.76 125.08C253.42 157.01 253.33 158.27 251.04 164.08C249.48 168.04 246.94 171.82 243.59 175.19C239.8 179.02 237.13 180.72 233.02 181.95C229.99 182.86 224.48 183.6 214.02 183.58L213.98 91.08Z" fill="#153E6C"></path><path d="M342.02 108.08L342.19 102.08L342.36 96.08L343.52 108.08L352.52 108.36C357.47 108.52 363.32 108.9 365.52 109.21C367.72 109.52 371.43 110.85 373.77 112.18C376.69 113.83 378.64 115.91 380 118.83C381.1 121.17 382 124.77 382 126.83C382.01 128.89 381.32 132.27 380.46 134.33C379.61 136.39 377.7 139.33 376.21 140.86C374.73 142.38 372.17 144.04 370.52 144.54C368.87 145.04 361.78 145.71 342.02 146.58V156.08C342.02 161.31 341.47 167.72 340.81 170.33C340.04 173.38 338.33 176.35 336.06 178.62C333.79 180.9 330.81 182.6 327.77 183.37C324.45 184.22 321.74 184.29 318.77 183.61C316.43 183.08 313.45 181.84 312.14 180.86C310.83 179.88 308.9 177.95 307.86 176.58C306.81 175.2 305.53 172.28 305.01 170.08C304.49 167.88 304.05 161.69 304.02 146.58L277.52 146.14L304.52 145.53L342.02 108.08Z" fill="#153E6C"></path><path d="M411.49 328.08L411.25 290.33L411.02 252.58L413.77 252.72C416.03 252.83 416.12 252.92 412.02 253.58L411.49 328.08Z" fill="#153E6C"></path><path d="M426.53 279.58C426.21 279.85 425.95 273.78 425.95 266.08C425.95 258.38 426.16 252.31 426.42 252.58C426.67 252.85 426.93 258.93 426.99 266.08C427.06 273.23 426.85 279.31 426.53 279.58Z" fill="#153E6C"></path><path d="M204.76 281.08C204.58 286.58 204.43 282.53 204.43 272.08C204.43 261.63 204.57 257.13 204.75 262.08C204.93 267.03 204.94 275.58 204.76 281.08Z" fill="#153E6C"></path><path d="M22.5102 255.31C20.3102 255.52 16.9302 255.52 15.0102 255.31C13.0802 255.09 14.8802 254.92 19.0102 254.92C23.1302 254.92 24.7102 255.09 22.5102 255.31Z" fill="#153E6C"></path><path d="M66.3502 255.79C63.5202 255.95 61.4002 255.74 61.6502 255.33C61.9002 254.92 65.3502 254.65 69.3102 254.73C73.2702 254.81 75.3802 255.02 74.0102 255.19C72.6302 255.37 69.1902 255.64 66.3502 255.79Z" fill="#153E6C"></path><path d="M183.01 255.31C181.08 255.52 177.48 255.52 175.01 255.31C172.53 255.1 174.11 254.93 178.51 254.92C182.91 254.92 184.93 255.09 183.01 255.31Z" fill="#153E6C"></path><path d="M154.76 303.58C154.58 309.35 154.43 304.85 154.43 293.58C154.43 282.31 154.58 277.58 154.76 283.08C154.93 288.58 154.93 297.81 154.76 303.58Z" fill="#153E6C"></path><path d="M346.75 299.08C346.57 303.48 346.42 299.43 346.42 290.08C346.42 280.73 346.57 277.13 346.75 282.08C346.94 287.03 346.94 294.68 346.75 299.08Z" fill="#153E6C"></path><path d="M361.75 296.58C361.57 301.25 361.42 297.88 361.41 289.08C361.41 280.28 361.56 276.45 361.75 280.58C361.94 284.7 361.94 291.91 361.75 296.58Z" fill="#153E6C"></path><path d="M382.75 296.08C382.57 300.48 382.41 297.1 382.41 288.58C382.41 280.06 382.57 276.45 382.75 280.58C382.94 284.7 382.94 291.68 382.75 296.08Z" fill="#153E6C"></path><path d="M397.75 299.08C397.57 303.48 397.42 299.43 397.42 290.08C397.42 280.73 397.57 277.13 397.75 282.08C397.94 287.03 397.94 294.68 397.75 299.08Z" fill="#153E6C"></path><path d="M186.76 317.08C186.58 323.13 186.43 318.63 186.43 307.08C186.43 295.53 186.58 290.58 186.75 296.08C186.93 301.58 186.93 311.03 186.76 317.08Z" fill="#153E6C"></path><path d="M308.01 296.32C303.88 296.51 297.58 296.51 294.01 296.32C290.43 296.13 293.81 295.97 301.51 295.97C309.21 295.98 312.13 296.13 308.01 296.32Z" fill="#153E6C"></path><path d="M256.75 321.08C256.56 324.93 256.4 322 256.4 314.58C256.4 307.16 256.56 304 256.75 307.58C256.94 311.16 256.94 317.23 256.75 321.08Z" fill="#153E6C"></path><path d="M116.02 289.39C117.53 287.92 119.83 286.5 121.14 286.23C122.44 285.97 125.31 285.93 127.51 286.15C129.71 286.37 132.52 287.23 133.76 288.06C135 288.9 136.8 290.8 137.76 292.29C138.9 294.05 139.51 296.96 139.51 300.61C139.51 305.19 139 306.92 136.76 309.91C135.03 312.22 132.62 314 130.26 314.7C128.2 315.32 124.94 315.57 123.01 315.25C121.08 314.94 118.11 313.42 116.39 311.88C114.57 310.24 112.74 307.21 111.98 304.58C110.93 300.91 110.93 299.34 111.98 296.08C112.69 293.88 114.51 290.87 116.02 289.39Z" fill="#153E6C"></path><path d="M428.93 291.21C430.02 289.64 432.39 287.72 434.21 286.95C436.02 286.18 439.31 285.7 441.51 285.88C443.71 286.05 446.97 287.19 448.76 288.39C450.72 289.71 452.65 292.27 453.61 294.83C454.61 297.47 454.98 300.41 454.61 302.58C454.28 304.5 453.19 307.43 452.2 309.08C451.2 310.73 448.62 312.93 446.45 313.96C443.63 315.3 441.37 315.66 438.51 315.22C436.31 314.89 433.5 313.93 432.26 313.1C431.02 312.26 429.06 309.44 427.9 306.83C426.36 303.38 425.95 300.98 426.38 298.08C426.7 295.88 427.85 292.79 428.93 291.21Z" fill="#153E6C"></path></svg></g></g></svg></g></svg>