<svg xmlns="http://www.w3.org/2000/svg" viewBox="100 -52 290 290">
  <style>
    #icon-light { display: inline; }
    #icon-dark { display: none; }
    @media (prefers-color-scheme: dark) {
      #icon-light { display: none; }
      #icon-dark { display: inline; }
    }
  </style>
  <g id="icon-light">
      <path d="M110.86 5.00998C112.16 3.50998 114.18 1.90998 115.36 1.45998C116.54 1.00998 128.53 0.739981 142.01 0.859981C164.57 1.05998 166.87 1.24998 171.01 3.18998C173.49 4.33998 189.68 16.89 207.01 31.06C224.33 45.22 240.65 58.9 243.26 61.45C245.87 64 249.13 68.56 250.5 71.58C252.31 75.57 253.07 79.14 253.51 92.08L247.51 95.05C242.74 97.41 240.18 98.02 235.01 98.03C230.1 98.05 227.16 97.42 223.01 95.48C219.6 93.89 208.24 85.17 193.07 72.5C179.62 61.27 165.78 49.72 162.32 46.83C158.52 43.67 155.04 41.58 153.58 41.58C152.25 41.58 150.45 42.26 149.58 43.08C148.18 44.42 148.01 52.26 148.02 185.08L139.77 184.54C133.71 184.15 130.04 183.3 126.01 181.37C122.98 179.92 118.68 176.79 116.44 174.41C114.2 172.02 111.4 167.51 110.19 164.33C108.01 158.58 108.01 158.55 108.51 7.73998L110.86 5.00998Z" fill="#3887C2"/>
      <path d="M294.95 5.63998C296.91 4.29998 300.31 2.63998 302.51 1.95998C305.17 1.12665 314.17 0.689981 329.51 0.649981C350.81 0.589981 352.75 0.739981 355.76 2.57998C357.55 3.67998 359.68 6.14998 360.51 8.07998C361.76 11.01 362.01 18.52 362.01 96.58L358.01 96.83C354.02 97.08 354.01 97.08 354.01 93.33C354.01 91.27 353.52 87.22 352.91 84.33C352.31 81.44 350.79 77.28 349.54 75.08C348.29 72.88 345.52 69.54 343.39 67.65C341.25 65.77 337.71 63.42 335.51 62.44C333.31 61.46 329.37 60.3 321.98 59.08L321.99 51.33C322.01 44.4 321.77 43.42 319.76 42.07C318.52 41.24 316.95 40.57 316.26 40.57C315.57 40.58 312.14 42.94 308.62 45.83C305.11 48.72 294.09 57.94 284.12 66.33C274.16 74.72 265.67 81.41 265.26 81.19C264.85 80.98 264.2 78.62 263.82 75.94C263.44 73.27 261.8 68.38 260.17 65.08C258.18 61.04 255.06 57.12 244.05 47.08L267.72 27.58C280.74 16.85 292.99 6.97998 294.95 5.63998Z" fill="#3887C2"/>
      <path d="M310.13 76.83C311.44 75.6 314.31 73.93 316.51 73.13C318.71 72.32 321.41 71.65 322.51 71.63C323.61 71.61 326.2 72.04 328.26 72.59C330.32 73.13 333.84 75.27 336.07 77.33C338.4 79.48 340.53 82.58 341.07 84.58C341.58 86.51 342 92.58 342 108.08L304.51 145.59L291.26 145.58C283.97 145.58 276.77 145.1 275.26 144.52C273.75 143.93 271.22 142.24 269.64 140.77C268.06 139.29 266.14 136.62 265.39 134.83C264.63 133.04 264.01 129.44 264.01 126.83C264 124.12 264.8 120.58 265.86 118.58C266.88 116.65 269.62 113.73 271.95 112.08C276.11 109.13 276.42 109.08 304.01 108.58L304.03 97.83C304.05 89.52 304.47 86.17 305.9 83.08C306.92 80.88 308.82 78.07 310.13 76.83Z" fill="#3887C2"/>
      <path d="M150.51 0.33C144.46 0.5 134.78 0.5 129.01 0.33C123.24 0.15 128.19 0 140.01 0C151.83 0 156.56 0.15 150.51 0.33Z" fill="#C9D1D5"/>
      <path d="M340.51 0.33C334.46 0.5 324.78 0.5 319.01 0.33C313.24 0.15 318.18 0 330.01 0C341.84 0 346.56 0.15 340.51 0.33Z" fill="#C9D1D5"/>
      <path d="M107.76 120.08C107.61 140.43 107.48 124.01 107.48 83.58C107.48 43.15 107.61 26.51 107.76 46.58C107.91 66.65 107.91 99.73 107.76 120.08Z" fill="#C9D1D5"/>
      <path d="M362.01 96.58L362.25 58.83L362.48 21.08L362.76 58.08C362.91 78.43 362.8 95.64 362.52 96.33C362.22 97.06 360.46 97.51 354.51 97.24L362.01 96.58Z" fill="#C9D1D5"/>
      <path d="M148.77 157.58C148.61 172.71 148.48 160.1 148.48 129.58C148.48 99.06 148.61 86.68 148.77 102.08C148.92 117.48 148.92 142.45 148.77 157.58Z" fill="#C9D1D5"/>
      <path d="M213.98 91.08L211.75 88.62C210.52 87.26 211.32 87.68 213.52 89.54C215.72 91.41 219.99 94.09 223.02 95.49C227.15 97.41 230.14 98.05 235.02 98.04C240.14 98.04 242.85 97.41 254.11 92.08L253.76 125.08C253.42 157.01 253.33 158.27 251.04 164.08C249.48 168.04 246.94 171.82 243.59 175.19C239.8 179.02 237.13 180.72 233.02 181.95C229.99 182.86 224.48 183.6 214.02 183.58L213.98 91.08Z" fill="#C9D1D5"/>
      <path d="M342.02 108.08L342.19 102.08L342.36 96.08L343.52 108.08L352.52 108.36C357.47 108.52 363.32 108.9 365.52 109.21C367.72 109.52 371.43 110.85 373.77 112.18C376.69 113.83 378.64 115.91 380 118.83C381.1 121.17 382 124.77 382 126.83C382.01 128.89 381.32 132.27 380.46 134.33C379.61 136.39 377.7 139.33 376.21 140.86C374.73 142.38 372.17 144.04 370.52 144.54C368.87 145.04 361.78 145.71 342.02 146.58V156.08C342.02 161.31 341.47 167.72 340.81 170.33C340.04 173.38 338.33 176.35 336.06 178.62C333.79 180.9 330.81 182.6 327.77 183.37C324.45 184.22 321.74 184.29 318.77 183.61C316.43 183.08 313.45 181.84 312.14 180.86C310.83 179.88 308.9 177.95 307.86 176.58C306.81 175.2 305.53 172.28 305.01 170.08C304.49 167.88 304.05 161.69 304.02 146.58L277.52 146.14L304.52 145.53L342.02 108.08Z" fill="#C9D1D5"/>
  </g>
  <g id="icon-dark">
      <path d="M110.86 5.00998C112.16 3.50998 114.18 1.90998 115.36 1.45998C116.54 1.00998 128.53 0.739981 142.01 0.859981C164.57 1.05998 166.87 1.24998 171.01 3.18998C173.49 4.33998 189.68 16.89 207.01 31.06C224.33 45.22 240.65 58.9 243.26 61.45C245.87 64 249.13 68.56 250.5 71.58C252.31 75.57 253.07 79.14 253.51 92.08L247.51 95.05C242.74 97.41 240.18 98.02 235.01 98.03C230.1 98.05 227.16 97.42 223.01 95.48C219.6 93.89 208.24 85.17 193.07 72.5C179.62 61.27 165.78 49.72 162.32 46.83C158.52 43.67 155.04 41.58 153.58 41.58C152.25 41.58 150.45 42.26 149.58 43.08C148.18 44.42 148.01 52.26 148.02 185.08L139.77 184.54C133.71 184.15 130.04 183.3 126.01 181.37C122.98 179.92 118.68 176.79 116.44 174.41C114.2 172.02 111.4 167.51 110.19 164.33C108.01 158.58 108.01 158.55 108.51 7.73998L110.86 5.00998Z" fill="#3887C2"/>
      <path d="M294.95 5.63998C296.91 4.29998 300.31 2.63998 302.51 1.95998C305.17 1.12665 314.17 0.689981 329.51 0.649981C350.81 0.589981 352.75 0.739981 355.76 2.57998C357.55 3.67998 359.68 6.14998 360.51 8.07998C361.76 11.01 362.01 18.52 362.01 96.58L358.01 96.83C354.02 97.08 354.01 97.08 354.01 93.33C354.01 91.27 353.52 87.22 352.91 84.33C352.31 81.44 350.79 77.28 349.54 75.08C348.29 72.88 345.52 69.54 343.39 67.65C341.25 65.77 337.71 63.42 335.51 62.44C333.31 61.46 329.37 60.3 321.98 59.08L321.99 51.33C322.01 44.4 321.77 43.42 319.76 42.07C318.52 41.24 316.95 40.57 316.26 40.57C315.57 40.58 312.14 42.94 308.62 45.83C305.11 48.72 294.09 57.94 284.12 66.33C274.16 74.72 265.67 81.41 265.26 81.19C264.85 80.98 264.2 78.62 263.82 75.94C263.44 73.27 261.8 68.38 260.17 65.08C258.18 61.04 255.06 57.12 244.05 47.08L267.72 27.58C280.74 16.85 292.99 6.97998 294.95 5.63998Z" fill="#3887C2"/>
      <path d="M310.13 76.83C311.44 75.6 314.31 73.93 316.51 73.13C318.71 72.32 321.41 71.65 322.51 71.63C323.61 71.61 326.2 72.04 328.26 72.59C330.32 73.13 333.84 75.27 336.07 77.33C338.4 79.48 340.53 82.58 341.07 84.58C341.58 86.51 342 92.58 342 108.08L304.51 145.59L291.26 145.58C283.97 145.58 276.77 145.1 275.26 144.52C273.75 143.93 271.22 142.24 269.64 140.77C268.06 139.29 266.14 136.62 265.39 134.83C264.63 133.04 264.01 129.44 264.01 126.83C264 124.12 264.8 120.58 265.86 118.58C266.88 116.65 269.62 113.73 271.95 112.08C276.11 109.13 276.42 109.08 304.01 108.58L304.03 97.83C304.05 89.52 304.47 86.17 305.9 83.08C306.92 80.88 308.82 78.07 310.13 76.83Z" fill="#3887C2"/>
      <path d="M150.51 0.33C144.46 0.5 134.78 0.5 129.01 0.33C123.24 0.15 128.19 0 140.01 0C151.83 0 156.56 0.15 150.51 0.33Z" fill="#153E6C"/>
      <path d="M340.51 0.33C334.46 0.5 324.78 0.5 319.01 0.33C313.24 0.15 318.18 0 330.01 0C341.84 0 346.56 0.15 340.51 0.33Z" fill="#153E6C"/>
      <path d="M107.76 120.08C107.61 140.43 107.48 124.01 107.48 83.58C107.48 43.15 107.61 26.51 107.76 46.58C107.91 66.65 107.91 99.73 107.76 120.08Z" fill="#153E6C"/>
      <path d="M362.01 96.58L362.25 58.83L362.48 21.08L362.76 58.08C362.91 78.43 362.8 95.64 362.52 96.33C362.22 97.06 360.46 97.51 354.51 97.24L362.01 96.58Z" fill="#153E6C"/>
      <path d="M148.77 157.58C148.61 172.71 148.48 160.1 148.48 129.58C148.48 99.06 148.61 86.68 148.77 102.08C148.92 117.48 148.92 142.45 148.77 157.58Z" fill="#153E6C"/>
      <path d="M213.98 91.08L211.75 88.62C210.52 87.26 211.32 87.68 213.52 89.54C215.72 91.41 219.99 94.09 223.02 95.49C227.15 97.41 230.14 98.05 235.02 98.04C240.14 98.04 242.85 97.41 254.11 92.08L253.76 125.08C253.42 157.01 253.33 158.27 251.04 164.08C249.48 168.04 246.94 171.82 243.59 175.19C239.8 179.02 237.13 180.72 233.02 181.95C229.99 182.86 224.48 183.6 214.02 183.58L213.98 91.08Z" fill="#153E6C"/>
      <path d="M342.02 108.08L342.19 102.08L342.36 96.08L343.52 108.08L352.52 108.36C357.47 108.52 363.32 108.9 365.52 109.21C367.72 109.52 371.43 110.85 373.77 112.18C376.69 113.83 378.64 115.91 380 118.83C381.1 121.17 382 124.77 382 126.83C382.01 128.89 381.32 132.27 380.46 134.33C379.61 136.39 377.7 139.33 376.21 140.86C374.73 142.38 372.17 144.04 370.52 144.54C368.87 145.04 361.78 145.71 342.02 146.58V156.08C342.02 161.31 341.47 167.72 340.81 170.33C340.04 173.38 338.33 176.35 336.06 178.62C333.79 180.9 330.81 182.6 327.77 183.37C324.45 184.22 321.74 184.29 318.77 183.61C316.43 183.08 313.45 181.84 312.14 180.86C310.83 179.88 308.9 177.95 307.86 176.58C306.81 175.2 305.53 172.28 305.01 170.08C304.49 167.88 304.05 161.69 304.02 146.58L277.52 146.14L304.52 145.53L342.02 108.08Z" fill="#153E6C"/>
  </g>
</svg>
